<mxfile host="Electron" modified="2024-04-18T18:31:07.840Z" agent="Mozilla/5.0 (Windows NT 10.0; Win64; x64) AppleWebKit/537.36 (KHTML, like Gecko) draw.io/22.0.2 Chrome/114.0.5735.289 Electron/25.8.4 Safari/537.36" etag="PhBtwf3FbX_KJ9xSXnW1" version="22.0.2" type="device" pages="2">
  <diagram name="High Level Architecture Design" id="lubKkRBj7AJyXdUeNZrd">
    <mxGraphModel dx="3781" dy="1196" grid="1" gridSize="10" guides="1" tooltips="1" connect="1" arrows="1" fold="1" page="1" pageScale="1" pageWidth="827" pageHeight="1169" math="0" shadow="0">
      <root>
        <mxCell id="0" />
        <mxCell id="1" parent="0" />
        <mxCell id="v2gmapiHjqFmHYx1XOg6-1" value="" style="rounded=0;whiteSpace=wrap;html=1;" vertex="1" parent="1">
          <mxGeometry x="-20" y="50" width="1100" height="970" as="geometry" />
        </mxCell>
        <mxCell id="v2gmapiHjqFmHYx1XOg6-2" value="" style="rounded=0;whiteSpace=wrap;html=1;opacity=80;fillColor=#008a00;strokeColor=#005700;fontColor=#ffffff;" vertex="1" parent="1">
          <mxGeometry x="320" y="260" width="200" height="510" as="geometry" />
        </mxCell>
        <mxCell id="VV3pcaRO4kwsun0wboft-31" value="" style="rounded=0;whiteSpace=wrap;html=1;opacity=80;fillColor=#a0522d;strokeColor=#6D1F00;fontColor=#ffffff;" parent="1" vertex="1">
          <mxGeometry x="540" y="280" width="520" height="710" as="geometry" />
        </mxCell>
        <mxCell id="VV3pcaRO4kwsun0wboft-29" value="" style="rounded=0;whiteSpace=wrap;html=1;opacity=80;fillColor=#1ba1e2;strokeColor=#006EAF;fontColor=#ffffff;" parent="1" vertex="1">
          <mxGeometry x="10" y="280" width="290" height="710" as="geometry" />
        </mxCell>
        <mxCell id="VV3pcaRO4kwsun0wboft-26" value="" style="rounded=0;whiteSpace=wrap;html=1;opacity=80;fillColor=#d80073;strokeColor=#A50040;fontColor=#ffffff;" parent="1" vertex="1">
          <mxGeometry x="10" y="130" width="820" height="100" as="geometry" />
        </mxCell>
        <mxCell id="VV3pcaRO4kwsun0wboft-7" style="edgeStyle=orthogonalEdgeStyle;rounded=0;orthogonalLoop=1;jettySize=auto;html=1;exitX=0.5;exitY=1;exitDx=0;exitDy=0;entryX=0.5;entryY=0;entryDx=0;entryDy=0;" parent="1" source="VV3pcaRO4kwsun0wboft-1" target="VV3pcaRO4kwsun0wboft-2" edge="1">
          <mxGeometry relative="1" as="geometry" />
        </mxCell>
        <mxCell id="VV3pcaRO4kwsun0wboft-1" value="User" style="rounded=0;whiteSpace=wrap;html=1;" parent="1" vertex="1">
          <mxGeometry x="110" y="80" width="620" height="30" as="geometry" />
        </mxCell>
        <mxCell id="VV3pcaRO4kwsun0wboft-9" value="" style="edgeStyle=orthogonalEdgeStyle;rounded=0;orthogonalLoop=1;jettySize=auto;html=1;entryX=0.75;entryY=0;entryDx=0;entryDy=0;" parent="1" source="VV3pcaRO4kwsun0wboft-2" target="VV3pcaRO4kwsun0wboft-3" edge="1">
          <mxGeometry relative="1" as="geometry">
            <Array as="points">
              <mxPoint x="450" y="230" />
              <mxPoint x="450" y="230" />
            </Array>
          </mxGeometry>
        </mxCell>
        <mxCell id="VV3pcaRO4kwsun0wboft-2" value="Electron&lt;div&gt;(GUI)&lt;/div&gt;" style="rounded=0;whiteSpace=wrap;html=1;" parent="1" vertex="1">
          <mxGeometry x="110" y="150" width="620" height="60" as="geometry" />
        </mxCell>
        <mxCell id="VV3pcaRO4kwsun0wboft-3" value="Main Process&lt;div&gt;(Node.js)&lt;/div&gt;" style="rounded=0;whiteSpace=wrap;html=1;" parent="1" vertex="1">
          <mxGeometry x="360" y="280" width="120" height="60" as="geometry" />
        </mxCell>
        <mxCell id="VV3pcaRO4kwsun0wboft-14" style="edgeStyle=orthogonalEdgeStyle;rounded=0;orthogonalLoop=1;jettySize=auto;html=1;exitX=0.75;exitY=1;exitDx=0;exitDy=0;entryX=0;entryY=0.5;entryDx=0;entryDy=0;startArrow=classic;startFill=1;" parent="1" source="VV3pcaRO4kwsun0wboft-4" target="VV3pcaRO4kwsun0wboft-6" edge="1">
          <mxGeometry relative="1" as="geometry" />
        </mxCell>
        <mxCell id="VV3pcaRO4kwsun0wboft-38" style="edgeStyle=orthogonalEdgeStyle;rounded=0;orthogonalLoop=1;jettySize=auto;html=1;exitX=0.25;exitY=1;exitDx=0;exitDy=0;entryX=0.25;entryY=0;entryDx=0;entryDy=0;" parent="1" source="VV3pcaRO4kwsun0wboft-4" target="VV3pcaRO4kwsun0wboft-37" edge="1">
          <mxGeometry relative="1" as="geometry" />
        </mxCell>
        <mxCell id="VV3pcaRO4kwsun0wboft-4" value="Render Window&lt;div&gt;(Chromium)&lt;/div&gt;" style="whiteSpace=wrap;html=1;" parent="1" vertex="1">
          <mxGeometry x="160" y="410" width="120" height="60" as="geometry" />
        </mxCell>
        <mxCell id="VV3pcaRO4kwsun0wboft-36" style="edgeStyle=orthogonalEdgeStyle;rounded=0;orthogonalLoop=1;jettySize=auto;html=1;exitX=0.75;exitY=1;exitDx=0;exitDy=0;entryX=1;entryY=0.25;entryDx=0;entryDy=0;" parent="1" source="VV3pcaRO4kwsun0wboft-5" target="VV3pcaRO4kwsun0wboft-35" edge="1">
          <mxGeometry relative="1" as="geometry">
            <Array as="points">
              <mxPoint x="650" y="695" />
            </Array>
          </mxGeometry>
        </mxCell>
        <mxCell id="VV3pcaRO4kwsun0wboft-5" value="Back-end&lt;div&gt;(Chromium)&lt;/div&gt;" style="whiteSpace=wrap;html=1;" parent="1" vertex="1">
          <mxGeometry x="560" y="410" width="120" height="60" as="geometry" />
        </mxCell>
        <mxCell id="VV3pcaRO4kwsun0wboft-6" value="IPC&lt;div&gt;(Inter-Process-Communication)&lt;/div&gt;" style="rounded=0;whiteSpace=wrap;html=1;" parent="1" vertex="1">
          <mxGeometry x="360" y="525" width="120" height="60" as="geometry" />
        </mxCell>
        <mxCell id="VV3pcaRO4kwsun0wboft-8" style="edgeStyle=orthogonalEdgeStyle;rounded=0;orthogonalLoop=1;jettySize=auto;html=1;exitX=0.25;exitY=0;exitDx=0;exitDy=0;entryX=0.452;entryY=1.012;entryDx=0;entryDy=0;entryPerimeter=0;" parent="1" source="VV3pcaRO4kwsun0wboft-3" target="VV3pcaRO4kwsun0wboft-2" edge="1">
          <mxGeometry relative="1" as="geometry" />
        </mxCell>
        <mxCell id="VV3pcaRO4kwsun0wboft-10" style="edgeStyle=orthogonalEdgeStyle;rounded=0;orthogonalLoop=1;jettySize=auto;html=1;exitX=0;exitY=0.5;exitDx=0;exitDy=0;entryX=0.571;entryY=-0.007;entryDx=0;entryDy=0;entryPerimeter=0;" parent="1" source="VV3pcaRO4kwsun0wboft-3" target="VV3pcaRO4kwsun0wboft-4" edge="1">
          <mxGeometry relative="1" as="geometry" />
        </mxCell>
        <mxCell id="VV3pcaRO4kwsun0wboft-11" style="edgeStyle=orthogonalEdgeStyle;rounded=0;orthogonalLoop=1;jettySize=auto;html=1;exitX=1;exitY=0.25;exitDx=0;exitDy=0;" parent="1" source="VV3pcaRO4kwsun0wboft-4" target="VV3pcaRO4kwsun0wboft-3" edge="1">
          <mxGeometry relative="1" as="geometry">
            <Array as="points">
              <mxPoint x="390" y="425" />
            </Array>
          </mxGeometry>
        </mxCell>
        <mxCell id="VV3pcaRO4kwsun0wboft-12" style="edgeStyle=orthogonalEdgeStyle;rounded=0;orthogonalLoop=1;jettySize=auto;html=1;exitX=1;exitY=0.5;exitDx=0;exitDy=0;entryX=0.438;entryY=-0.007;entryDx=0;entryDy=0;entryPerimeter=0;" parent="1" source="VV3pcaRO4kwsun0wboft-3" target="VV3pcaRO4kwsun0wboft-5" edge="1">
          <mxGeometry relative="1" as="geometry" />
        </mxCell>
        <mxCell id="VV3pcaRO4kwsun0wboft-13" style="edgeStyle=orthogonalEdgeStyle;rounded=0;orthogonalLoop=1;jettySize=auto;html=1;exitX=0;exitY=0.25;exitDx=0;exitDy=0;" parent="1" source="VV3pcaRO4kwsun0wboft-5" target="VV3pcaRO4kwsun0wboft-3" edge="1">
          <mxGeometry relative="1" as="geometry">
            <Array as="points">
              <mxPoint x="450" y="425" />
            </Array>
          </mxGeometry>
        </mxCell>
        <mxCell id="VV3pcaRO4kwsun0wboft-15" style="edgeStyle=orthogonalEdgeStyle;rounded=0;orthogonalLoop=1;jettySize=auto;html=1;exitX=1;exitY=0.5;exitDx=0;exitDy=0;startArrow=classic;startFill=1;entryX=0.25;entryY=1;entryDx=0;entryDy=0;" parent="1" source="VV3pcaRO4kwsun0wboft-6" target="VV3pcaRO4kwsun0wboft-5" edge="1">
          <mxGeometry relative="1" as="geometry">
            <mxPoint x="610" y="470" as="targetPoint" />
          </mxGeometry>
        </mxCell>
        <mxCell id="npDZ4MEd7F3KYYKAvE7U-3" style="edgeStyle=orthogonalEdgeStyle;rounded=0;orthogonalLoop=1;jettySize=auto;html=1;exitX=0.5;exitY=1;exitDx=0;exitDy=0;entryX=0;entryY=0.5;entryDx=0;entryDy=0;" edge="1" parent="1" source="VV3pcaRO4kwsun0wboft-16" target="VV3pcaRO4kwsun0wboft-19">
          <mxGeometry relative="1" as="geometry" />
        </mxCell>
        <mxCell id="VV3pcaRO4kwsun0wboft-16" value="Python Shell" style="whiteSpace=wrap;html=1;" parent="1" vertex="1">
          <mxGeometry x="650" y="760" width="120" height="60" as="geometry" />
        </mxCell>
        <mxCell id="npDZ4MEd7F3KYYKAvE7U-4" style="edgeStyle=orthogonalEdgeStyle;rounded=0;orthogonalLoop=1;jettySize=auto;html=1;exitX=1;exitY=0.5;exitDx=0;exitDy=0;entryX=0.5;entryY=1;entryDx=0;entryDy=0;" edge="1" parent="1" source="VV3pcaRO4kwsun0wboft-19" target="VV3pcaRO4kwsun0wboft-21">
          <mxGeometry relative="1" as="geometry" />
        </mxCell>
        <mxCell id="VV3pcaRO4kwsun0wboft-19" value="Process CSV&lt;div&gt;(Pandas)&lt;/div&gt;" style="rounded=0;whiteSpace=wrap;html=1;" parent="1" vertex="1">
          <mxGeometry x="770" y="880" width="120" height="60" as="geometry" />
        </mxCell>
        <mxCell id="npDZ4MEd7F3KYYKAvE7U-5" style="edgeStyle=orthogonalEdgeStyle;rounded=0;orthogonalLoop=1;jettySize=auto;html=1;exitX=0.5;exitY=0;exitDx=0;exitDy=0;entryX=1;entryY=0.5;entryDx=0;entryDy=0;" edge="1" parent="1" source="VV3pcaRO4kwsun0wboft-21" target="VV3pcaRO4kwsun0wboft-23">
          <mxGeometry relative="1" as="geometry" />
        </mxCell>
        <mxCell id="VV3pcaRO4kwsun0wboft-21" value="Analyse data with Machine Learning&lt;div&gt;(SKLearn)&lt;/div&gt;" style="whiteSpace=wrap;html=1;" parent="1" vertex="1">
          <mxGeometry x="890" y="760" width="120" height="60" as="geometry" />
        </mxCell>
        <mxCell id="npDZ4MEd7F3KYYKAvE7U-6" style="edgeStyle=orthogonalEdgeStyle;rounded=0;orthogonalLoop=1;jettySize=auto;html=1;exitX=0;exitY=0.5;exitDx=0;exitDy=0;entryX=0.5;entryY=0;entryDx=0;entryDy=0;" edge="1" parent="1" source="VV3pcaRO4kwsun0wboft-23" target="VV3pcaRO4kwsun0wboft-16">
          <mxGeometry relative="1" as="geometry" />
        </mxCell>
        <mxCell id="VV3pcaRO4kwsun0wboft-23" value="Return Analysed Data&lt;div&gt;(JSON)&lt;/div&gt;" style="whiteSpace=wrap;html=1;" parent="1" vertex="1">
          <mxGeometry x="770" y="640" width="120" height="60" as="geometry" />
        </mxCell>
        <mxCell id="VV3pcaRO4kwsun0wboft-27" value="Interactions" style="text;html=1;align=center;verticalAlign=middle;whiteSpace=wrap;rounded=0;" parent="1" vertex="1">
          <mxGeometry x="20" y="165" width="60" height="30" as="geometry" />
        </mxCell>
        <mxCell id="VV3pcaRO4kwsun0wboft-30" value="Front End" style="text;html=1;align=center;verticalAlign=middle;whiteSpace=wrap;rounded=0;fontSize=17;" parent="1" vertex="1">
          <mxGeometry x="112.5" y="295" width="85" height="30" as="geometry" />
        </mxCell>
        <mxCell id="VV3pcaRO4kwsun0wboft-33" value="Back End" style="text;html=1;align=center;verticalAlign=middle;whiteSpace=wrap;rounded=0;fontSize=17;" parent="1" vertex="1">
          <mxGeometry x="755" y="290" width="90" height="30" as="geometry" />
        </mxCell>
        <mxCell id="VV3pcaRO4kwsun0wboft-40" style="edgeStyle=orthogonalEdgeStyle;rounded=0;orthogonalLoop=1;jettySize=auto;html=1;exitX=0;exitY=0.75;exitDx=0;exitDy=0;entryX=1;entryY=0.75;entryDx=0;entryDy=0;" parent="1" source="VV3pcaRO4kwsun0wboft-35" target="VV3pcaRO4kwsun0wboft-37" edge="1">
          <mxGeometry relative="1" as="geometry" />
        </mxCell>
        <mxCell id="npDZ4MEd7F3KYYKAvE7U-1" style="edgeStyle=orthogonalEdgeStyle;rounded=0;orthogonalLoop=1;jettySize=auto;html=1;exitX=1;exitY=0.5;exitDx=0;exitDy=0;entryX=0;entryY=0.25;entryDx=0;entryDy=0;endArrow=none;endFill=0;startArrow=classic;startFill=1;" edge="1" parent="1" source="VV3pcaRO4kwsun0wboft-35" target="VV3pcaRO4kwsun0wboft-16">
          <mxGeometry relative="1" as="geometry" />
        </mxCell>
        <mxCell id="npDZ4MEd7F3KYYKAvE7U-2" style="edgeStyle=orthogonalEdgeStyle;rounded=0;orthogonalLoop=1;jettySize=auto;html=1;exitX=1;exitY=0.75;exitDx=0;exitDy=0;entryX=0;entryY=0.75;entryDx=0;entryDy=0;endArrow=classic;endFill=1;startArrow=none;startFill=0;" edge="1" parent="1" source="VV3pcaRO4kwsun0wboft-35" target="VV3pcaRO4kwsun0wboft-16">
          <mxGeometry relative="1" as="geometry">
            <Array as="points">
              <mxPoint x="550" y="725" />
              <mxPoint x="550" y="805" />
            </Array>
          </mxGeometry>
        </mxCell>
        <mxCell id="VV3pcaRO4kwsun0wboft-35" value="React Application" style="whiteSpace=wrap;html=1;" parent="1" vertex="1">
          <mxGeometry x="360" y="680" width="120" height="60" as="geometry" />
        </mxCell>
        <mxCell id="VV3pcaRO4kwsun0wboft-39" style="edgeStyle=orthogonalEdgeStyle;rounded=0;orthogonalLoop=1;jettySize=auto;html=1;exitX=1;exitY=0.25;exitDx=0;exitDy=0;entryX=0;entryY=0.25;entryDx=0;entryDy=0;" parent="1" source="VV3pcaRO4kwsun0wboft-37" target="VV3pcaRO4kwsun0wboft-35" edge="1">
          <mxGeometry relative="1" as="geometry" />
        </mxCell>
        <mxCell id="VV3pcaRO4kwsun0wboft-42" style="edgeStyle=orthogonalEdgeStyle;rounded=0;orthogonalLoop=1;jettySize=auto;html=1;exitX=0.25;exitY=1;exitDx=0;exitDy=0;entryX=0.25;entryY=0;entryDx=0;entryDy=0;" parent="1" source="VV3pcaRO4kwsun0wboft-37" target="VV3pcaRO4kwsun0wboft-41" edge="1">
          <mxGeometry relative="1" as="geometry" />
        </mxCell>
        <mxCell id="VV3pcaRO4kwsun0wboft-37" value="Next UI Components" style="whiteSpace=wrap;html=1;" parent="1" vertex="1">
          <mxGeometry x="160" y="680" width="120" height="60" as="geometry" />
        </mxCell>
        <mxCell id="VV3pcaRO4kwsun0wboft-43" style="edgeStyle=orthogonalEdgeStyle;rounded=0;orthogonalLoop=1;jettySize=auto;html=1;exitX=0.75;exitY=0;exitDx=0;exitDy=0;entryX=0.75;entryY=1;entryDx=0;entryDy=0;" parent="1" source="VV3pcaRO4kwsun0wboft-41" target="VV3pcaRO4kwsun0wboft-37" edge="1">
          <mxGeometry relative="1" as="geometry" />
        </mxCell>
        <mxCell id="VV3pcaRO4kwsun0wboft-41" value="Tailwind Styling" style="whiteSpace=wrap;html=1;" parent="1" vertex="1">
          <mxGeometry x="160" y="810" width="120" height="60" as="geometry" />
        </mxCell>
        <mxCell id="v2gmapiHjqFmHYx1XOg6-3" value="Stack Management (Pipline)" style="text;html=1;align=center;verticalAlign=middle;whiteSpace=wrap;rounded=0;fontSize=17;" vertex="1" parent="1">
          <mxGeometry x="390" y="620" width="60" height="30" as="geometry" />
        </mxCell>
      </root>
    </mxGraphModel>
  </diagram>
  <diagram id="0MWv2VjyQfUR55dWuins" name="High Level Sequence Diagram">
    <mxGraphModel dx="1407" dy="570" grid="1" gridSize="10" guides="1" tooltips="1" connect="1" arrows="1" fold="1" page="1" pageScale="1" pageWidth="827" pageHeight="1169" math="0" shadow="0">
      <root>
        <mxCell id="0" />
        <mxCell id="1" parent="0" />
        <mxCell id="d6CT57poHo-pm6NQnKl--2" value="User" style="shape=umlActor;verticalLabelPosition=bottom;verticalAlign=top;html=1;outlineConnect=0;" vertex="1" parent="1">
          <mxGeometry x="100" y="130" width="30" height="60" as="geometry" />
        </mxCell>
        <mxCell id="oNaT9F9ySZHUNQdbeeXg-1" value="Electron" style="rounded=0;whiteSpace=wrap;html=1;" vertex="1" parent="1">
          <mxGeometry x="240" y="60" width="120" height="60" as="geometry" />
        </mxCell>
        <mxCell id="oNaT9F9ySZHUNQdbeeXg-2" value="" style="rounded=0;whiteSpace=wrap;html=1;" vertex="1" parent="1">
          <mxGeometry x="400" y="60" width="120" height="60" as="geometry" />
        </mxCell>
      </root>
    </mxGraphModel>
  </diagram>
</mxfile>
